<?xml version="1.0" encoding="UTF-8" standalone="no"?>
<!DOCTYPE svg PUBLIC "-//W3C//DTD SVG 1.1//EN"
 "http://www.w3.org/Graphics/SVG/1.1/DTD/svg11.dtd">
<!-- Generated by graphviz version 13.1.2 (20250808.2320)
 -->
<!-- Title: tile_compile::astrometry::WCS::pixel_scale_arcsec Pages: 1 -->
<svg width="835pt" height="68pt"
 viewBox="0.00 0.00 835.00 68.00" xmlns="http://www.w3.org/2000/svg" xmlns:xlink="http://www.w3.org/1999/xlink">
<g id="graph0" class="graph" transform="scale(1 1) rotate(0) translate(4 63.75)">
<title>tile_compile::astrometry::WCS::pixel_scale_arcsec</title>
<!-- Node1 -->
<g id="Node000001" class="node">
<title>Node1</title>
<g id="a_Node000001"><a xlink:title=" ">
<polygon fill="#999999" stroke="#666666" points="826.5,-41.75 693.5,-41.75 693.5,-12.75 826.5,-12.75 826.5,-41.75"/>
<text xml:space="preserve" text-anchor="start" x="701.5" y="-28.25" font-family="Helvetica,sans-Serif" font-size="10.00">tile_compile::astrometry</text>
<text xml:space="preserve" text-anchor="middle" x="760" y="-17.75" font-family="Helvetica,sans-Serif" font-size="10.00">::WCS::pixel_scale_arcsec</text>
</a>
</g>
</g>
<!-- Node2 -->
<g id="Node000002" class="node">
<title>Node2</title>
<g id="a_Node000002"><a xlink:href="structtile__compile_1_1astrometry_1_1WCS.html#ac58cff044fd54193026a7f57d655fbb3" target="_top" xlink:title=" ">
<polygon fill="white" stroke="#666666" points="657.5,-41.75 525.25,-41.75 525.25,-12.75 657.5,-12.75 657.5,-41.75"/>
<text xml:space="preserve" text-anchor="start" x="533.25" y="-28.25" font-family="Helvetica,sans-Serif" font-size="10.00">tile_compile::astrometry</text>
<text xml:space="preserve" text-anchor="middle" x="591.38" y="-17.75" font-family="Helvetica,sans-Serif" font-size="10.00">::WCS::search_radius_deg</text>
</a>
</g>
</g>
<!-- Node1&#45;&gt;Node2 -->
<g id="edge1_Node000001_Node000002" class="edge">
<title>Node1&#45;&gt;Node2</title>
<g id="a_edge1_Node000001_Node000002"><a xlink:title=" ">
<path fill="none" stroke="#63b8ff" d="M681.84,-27.25C673.79,-27.25 665.66,-27.25 657.75,-27.25"/>
<polygon fill="#63b8ff" stroke="#63b8ff" points="681.63,-30.75 691.63,-27.25 681.63,-23.75 681.63,-30.75"/>
</a>
</g>
</g>
<!-- Node3 -->
<g id="Node000003" class="node">
<title>Node3</title>
<g id="a_Node000003"><a xlink:href="namespacetile__compile_1_1runner.html#a413fd9ebd818a0df44ae1a0ccd267628" target="_top" xlink:title="Queries pcc catalog stars.">
<polygon fill="white" stroke="#666666" points="489.25,-41.75 357,-41.75 357,-12.75 489.25,-12.75 489.25,-41.75"/>
<text xml:space="preserve" text-anchor="start" x="365" y="-28.25" font-family="Helvetica,sans-Serif" font-size="10.00">tile_compile::runner</text>
<text xml:space="preserve" text-anchor="middle" x="423.12" y="-17.75" font-family="Helvetica,sans-Serif" font-size="10.00">::query_pcc_catalog_stars</text>
</a>
</g>
</g>
<!-- Node2&#45;&gt;Node3 -->
<g id="edge2_Node000002_Node000003" class="edge">
<title>Node2&#45;&gt;Node3</title>
<g id="a_edge2_Node000002_Node000003"><a xlink:title=" ">
<path fill="none" stroke="#63b8ff" d="M513.84,-27.25C505.78,-27.25 497.63,-27.25 489.71,-27.25"/>
<polygon fill="#63b8ff" stroke="#63b8ff" points="513.63,-30.75 523.63,-27.25 513.63,-23.75 513.63,-30.75"/>
</a>
</g>
</g>
<!-- Node3&#45;&gt;Node3 -->
<g id="edge3_Node000003_Node000003" class="edge">
<title>Node3&#45;&gt;Node3</title>
<g id="a_edge3_Node000003_Node000003"><a xlink:title=" ">
<path fill="none" stroke="#63b8ff" d="M450.28,-53.31C446.02,-57.16 436.97,-59.75 423.12,-59.75 397.81,-59.75 388.52,-51.07 395.24,-41.96"/>
<polygon fill="#63b8ff" stroke="#63b8ff" points="453.77,-53.67 450.91,-43.47 446.78,-53.22 453.77,-53.67"/>
</a>
</g>
</g>
<!-- Node4 -->
<g id="Node000004" class="node">
<title>Node4</title>
<g id="a_Node000004"><a xlink:href="runner__resume_8cpp.html#a8c577f323a184a77704a04f4cac47191" target="_top" xlink:title="Implements resume command.">
<polygon fill="white" stroke="#666666" points="169.25,-55.5 73,-55.5 73,-37 169.25,-37 169.25,-55.5"/>
<text xml:space="preserve" text-anchor="middle" x="121.12" y="-42" font-family="Helvetica,sans-Serif" font-size="10.00">resume_command</text>
</a>
</g>
</g>
<!-- Node3&#45;&gt;Node4 -->
<g id="edge4_Node000003_Node000004" class="edge">
<title>Node3&#45;&gt;Node4</title>
<g id="a_edge4_Node000003_Node000004"><a xlink:title=" ">
<path fill="none" stroke="#63b8ff" d="M345.44,-32.11C289.88,-35.63 216.51,-40.27 169.31,-43.26"/>
<polygon fill="#63b8ff" stroke="#63b8ff" points="345.39,-35.62 355.15,-31.49 344.95,-28.63 345.39,-35.62"/>
</a>
</g>
</g>
<!-- Node6 -->
<g id="Node000006" class="node">
<title>Node6</title>
<g id="a_Node000006"><a xlink:href="runner__pipeline_8cpp.html#a6517f835026198833adf9a1d4b70569e" target="_top" xlink:title="Runs pipeline command.">
<polygon fill="white" stroke="#666666" points="321,-18.5 205.25,-18.5 205.25,0 321,0 321,-18.5"/>
<text xml:space="preserve" text-anchor="middle" x="263.12" y="-5" font-family="Helvetica,sans-Serif" font-size="10.00">run_pipeline_command</text>
</a>
</g>
</g>
<!-- Node3&#45;&gt;Node6 -->
<g id="edge6_Node000003_Node000006" class="edge">
<title>Node3&#45;&gt;Node6</title>
<g id="a_edge6_Node000003_Node000006"><a xlink:title=" ">
<path fill="none" stroke="#63b8ff" d="M345.7,-18.54C337.41,-17.6 329.08,-16.65 321.08,-15.74"/>
<polygon fill="#63b8ff" stroke="#63b8ff" points="345.11,-22 355.44,-19.65 345.9,-15.04 345.11,-22"/>
</a>
</g>
</g>
<!-- Node5 -->
<g id="Node000005" class="node">
<title>Node5</title>
<g id="a_Node000005"><a xlink:href="runner__main_8cpp.html#a0ddf1224851353fc92bfbff6f499fa97" target="_top" xlink:title="Implements main.">
<polygon fill="white" stroke="#666666" points="37,-36.5 0,-36.5 0,-18 37,-18 37,-36.5"/>
<text xml:space="preserve" text-anchor="middle" x="18.5" y="-23" font-family="Helvetica,sans-Serif" font-size="10.00">main</text>
</a>
</g>
</g>
<!-- Node4&#45;&gt;Node5 -->
<g id="edge5_Node000004_Node000005" class="edge">
<title>Node4&#45;&gt;Node5</title>
<g id="a_edge5_Node000004_Node000005"><a xlink:title=" ">
<path fill="none" stroke="#63b8ff" d="M61.52,-35.18C52.72,-33.52 44.28,-31.93 37.29,-30.61"/>
<polygon fill="#63b8ff" stroke="#63b8ff" points="60.8,-38.61 71.27,-37.03 62.09,-31.73 60.8,-38.61"/>
</a>
</g>
</g>
<!-- Node7 -->
<g id="Node000007" class="node">
<title>Node7</title>
<g id="a_Node000007"><a xlink:href="runner__main_8cpp.html#a20bf0ba1953bf233e543b412a04c8d5a" target="_top" xlink:title="Runs command.">
<polygon fill="white" stroke="#666666" points="159.88,-18.5 82.38,-18.5 82.38,0 159.88,0 159.88,-18.5"/>
<text xml:space="preserve" text-anchor="middle" x="121.12" y="-5" font-family="Helvetica,sans-Serif" font-size="10.00">run_command</text>
</a>
</g>
</g>
<!-- Node6&#45;&gt;Node7 -->
<g id="edge7_Node000006_Node000007" class="edge">
<title>Node6&#45;&gt;Node7</title>
<g id="a_edge7_Node000006_Node000007"><a xlink:title=" ">
<path fill="none" stroke="#63b8ff" d="M193.34,-9.25C181.85,-9.25 170.31,-9.25 159.97,-9.25"/>
<polygon fill="#63b8ff" stroke="#63b8ff" points="193.26,-12.75 203.26,-9.25 193.26,-5.75 193.26,-12.75"/>
</a>
</g>
</g>
<!-- Node7&#45;&gt;Node5 -->
<g id="edge8_Node000007_Node000005" class="edge">
<title>Node7&#45;&gt;Node5</title>
<g id="a_edge8_Node000007_Node000005"><a xlink:title=" ">
<path fill="none" stroke="#63b8ff" d="M71.09,-18.02C59.01,-20.18 46.83,-22.36 37.34,-24.06"/>
<polygon fill="#63b8ff" stroke="#63b8ff" points="71.37,-21.53 80.59,-16.32 70.13,-14.64 71.37,-21.53"/>
</a>
</g>
</g>
</g>
</svg>
