<?xml version="1.0" encoding="UTF-8" standalone="no"?>
<!DOCTYPE svg PUBLIC "-//W3C//DTD SVG 1.1//EN"
 "http://www.w3.org/Graphics/SVG/1.1/DTD/svg11.dtd">
<!-- Generated by graphviz version 13.1.2 (20250808.2320)
 -->
<!-- Title: tile_compile::astrometry::estimate_background Pages: 1 -->
<svg width="640pt" height="164pt"
 viewBox="0.00 0.00 640.00 164.00" xmlns="http://www.w3.org/2000/svg" xmlns:xlink="http://www.w3.org/1999/xlink">
<g id="graph0" class="graph" transform="scale(1 1) rotate(0) translate(4 160.25)">
<title>tile_compile::astrometry::estimate_background</title>
<!-- Node1 -->
<g id="Node000001" class="node">
<title>Node1</title>
<g id="a_Node000001"><a xlink:title="Estimates background.">
<polygon fill="#999999" stroke="#666666" points="631.75,-116 510.75,-116 510.75,-87 631.75,-87 631.75,-116"/>
<text xml:space="preserve" text-anchor="start" x="518.75" y="-102.5" font-family="Helvetica,sans-Serif" font-size="10.00">tile_compile::astrometry</text>
<text xml:space="preserve" text-anchor="middle" x="571.25" y="-92" font-family="Helvetica,sans-Serif" font-size="10.00">::estimate_background</text>
</a>
</g>
</g>
<!-- Node2 -->
<g id="Node000002" class="node">
<title>Node2</title>
<g id="a_Node000002"><a xlink:href="namespacetile__compile_1_1astrometry.html#a9edd11f0298e713fdd46e0a0fa9d658a" target="_top" xlink:title="Applies diagonal color matrix affine.">
<polygon fill="white" stroke="#666666" points="474.75,-156.25 353.75,-156.25 353.75,-116.75 474.75,-116.75 474.75,-156.25"/>
<text xml:space="preserve" text-anchor="start" x="361.75" y="-142.75" font-family="Helvetica,sans-Serif" font-size="10.00">tile_compile::astrometry</text>
<text xml:space="preserve" text-anchor="start" x="361.75" y="-132.25" font-family="Helvetica,sans-Serif" font-size="10.00">::apply_diagonal_color</text>
<text xml:space="preserve" text-anchor="middle" x="414.25" y="-121.75" font-family="Helvetica,sans-Serif" font-size="10.00">_matrix_affine</text>
</a>
</g>
</g>
<!-- Node1&#45;&gt;Node2 -->
<g id="edge1_Node000001_Node000002" class="edge">
<title>Node1&#45;&gt;Node2</title>
<g id="a_edge1_Node000001_Node000002"><a xlink:title=" ">
<path fill="none" stroke="#63b8ff" d="M499.33,-117.51C491.2,-119.35 482.98,-121.21 475.02,-123"/>
<polygon fill="#63b8ff" stroke="#63b8ff" points="499.86,-120.98 508.85,-115.37 498.32,-114.15 499.86,-120.98"/>
</a>
</g>
</g>
<!-- Node4 -->
<g id="Node000004" class="node">
<title>Node4</title>
<g id="a_Node000004"><a xlink:href="namespacetile__compile_1_1astrometry.html#ab26c7f391dd3d92368c4b5925a55491b" target="_top" xlink:title="Builds pcc attenuation context.">
<polygon fill="white" stroke="#666666" points="474.75,-92.25 353.75,-92.25 353.75,-52.75 474.75,-52.75 474.75,-92.25"/>
<text xml:space="preserve" text-anchor="start" x="361.75" y="-78.75" font-family="Helvetica,sans-Serif" font-size="10.00">tile_compile::astrometry</text>
<text xml:space="preserve" text-anchor="start" x="361.75" y="-68.25" font-family="Helvetica,sans-Serif" font-size="10.00">::build_pcc_attenuation</text>
<text xml:space="preserve" text-anchor="middle" x="414.25" y="-57.75" font-family="Helvetica,sans-Serif" font-size="10.00">_context</text>
</a>
</g>
</g>
<!-- Node1&#45;&gt;Node4 -->
<g id="edge3_Node000001_Node000004" class="edge">
<title>Node1&#45;&gt;Node4</title>
<g id="a_edge3_Node000001_Node000004"><a xlink:title=" ">
<path fill="none" stroke="#63b8ff" d="M499.06,-88.18C491.02,-86.68 482.89,-85.16 475.02,-83.68"/>
<polygon fill="#63b8ff" stroke="#63b8ff" points="498.36,-91.61 508.84,-90.01 499.65,-84.73 498.36,-91.61"/>
</a>
</g>
</g>
<!-- Node3 -->
<g id="Node000003" class="node">
<title>Node3</title>
<g id="a_Node000003"><a xlink:href="namespacetile__compile_1_1astrometry.html#a0149d1f87eb95241b798c5d069ff6ec0" target="_top" xlink:title="Runs pcc.">
<polygon fill="white" stroke="#666666" points="121,-108 0,-108 0,-79 121,-79 121,-108"/>
<text xml:space="preserve" text-anchor="start" x="8" y="-94.5" font-family="Helvetica,sans-Serif" font-size="10.00">tile_compile::astrometry</text>
<text xml:space="preserve" text-anchor="middle" x="60.5" y="-84" font-family="Helvetica,sans-Serif" font-size="10.00">::run_pcc</text>
</a>
</g>
</g>
<!-- Node2&#45;&gt;Node3 -->
<g id="edge2_Node000002_Node000003" class="edge">
<title>Node2&#45;&gt;Node3</title>
<g id="a_edge2_Node000002_Node000003"><a xlink:title=" ">
<path fill="none" stroke="#63b8ff" d="M342.24,-127.82C277.39,-119.89 182.59,-108.3 121.46,-100.83"/>
<polygon fill="#63b8ff" stroke="#63b8ff" points="341.73,-131.28 352.08,-129.02 342.58,-124.33 341.73,-131.28"/>
</a>
</g>
</g>
<!-- Node4&#45;&gt;Node3 -->
<g id="edge10_Node000004_Node000003" class="edge">
<title>Node4&#45;&gt;Node3</title>
<g id="a_edge10_Node000004_Node000003"><a xlink:title=" ">
<path fill="none" stroke="#63b8ff" d="M342.3,-82.99C334.04,-83.97 325.72,-84.84 317.75,-85.5 250.66,-91.1 173.4,-92.87 121.4,-93.39"/>
<polygon fill="#63b8ff" stroke="#63b8ff" points="342.5,-86.49 351.99,-81.79 341.64,-79.55 342.5,-86.49"/>
</a>
</g>
</g>
<!-- Node5 -->
<g id="Node000005" class="node">
<title>Node5</title>
<g id="a_Node000005"><a xlink:href="namespacetile__compile_1_1astrometry.html#a76ad2f1309bfdc9228cfacd6c1b48fb1" target="_top" xlink:title="Applies color matrix impl.">
<polygon fill="white" stroke="#666666" points="300.88,-29 173.88,-29 173.88,0 300.88,0 300.88,-29"/>
<text xml:space="preserve" text-anchor="start" x="181.88" y="-15.5" font-family="Helvetica,sans-Serif" font-size="10.00">tile_compile::astrometry</text>
<text xml:space="preserve" text-anchor="middle" x="237.38" y="-5" font-family="Helvetica,sans-Serif" font-size="10.00">::apply_color_matrix_impl</text>
</a>
</g>
</g>
<!-- Node4&#45;&gt;Node5 -->
<g id="edge4_Node000004_Node000005" class="edge">
<title>Node4&#45;&gt;Node5</title>
<g id="a_edge4_Node000004_Node000005"><a xlink:title=" ">
<path fill="none" stroke="#63b8ff" d="M347.26,-48.54C337.4,-45.09 327.33,-41.65 317.75,-38.5 308.59,-35.49 298.78,-32.41 289.3,-29.5"/>
<polygon fill="#63b8ff" stroke="#63b8ff" points="345.83,-51.75 356.43,-51.77 348.16,-45.14 345.83,-51.75"/>
</a>
</g>
</g>
<!-- Node7 -->
<g id="Node000007" class="node">
<title>Node7</title>
<g id="a_Node000007"><a xlink:href="namespacetile__compile_1_1astrometry.html#abfb6c70138ada6b0d90a51f1815a43ce" target="_top" xlink:title="Applies color matrix impl simple.">
<polygon fill="white" stroke="#666666" points="317.75,-76 157,-76 157,-47 317.75,-47 317.75,-76"/>
<text xml:space="preserve" text-anchor="start" x="165" y="-62.5" font-family="Helvetica,sans-Serif" font-size="10.00">tile_compile::astrometry</text>
<text xml:space="preserve" text-anchor="middle" x="237.38" y="-52" font-family="Helvetica,sans-Serif" font-size="10.00">::apply_color_matrix_impl_simple</text>
</a>
</g>
</g>
<!-- Node4&#45;&gt;Node7 -->
<g id="edge7_Node000004_Node000007" class="edge">
<title>Node4&#45;&gt;Node7</title>
<g id="a_edge7_Node000004_Node000007"><a xlink:title=" ">
<path fill="none" stroke="#63b8ff" d="M342.16,-68.03C334.27,-67.53 326.2,-67.02 318.21,-66.52"/>
<polygon fill="#63b8ff" stroke="#63b8ff" points="341.85,-71.52 352.05,-68.65 342.29,-64.53 341.85,-71.52"/>
</a>
</g>
</g>
<!-- Node5&#45;&gt;Node3 -->
<g id="edge6_Node000005_Node000003" class="edge">
<title>Node5&#45;&gt;Node3</title>
<g id="a_edge6_Node000005_Node000003"><a xlink:title=" ">
<path fill="none" stroke="#63b8ff" d="M170.37,-33.15C165.8,-34.84 161.31,-36.62 157,-38.5 140.02,-45.9 137.04,-50.24 121,-59.5 110.08,-65.81 98,-72.72 87.6,-78.66"/>
<polygon fill="#63b8ff" stroke="#63b8ff" points="171.41,-36.49 179.69,-29.88 169.09,-29.89 171.41,-36.49"/>
</a>
</g>
</g>
<!-- Node6 -->
<g id="Node000006" class="node">
<title>Node6</title>
<g id="a_Node000006"><a xlink:href="namespacetile__compile_1_1astrometry.html#a3a529e8592863c808b336f297f589789" target="_top" xlink:title="Applies color matrix.">
<polygon fill="white" stroke="#666666" points="121,-50 0,-50 0,-21 121,-21 121,-50"/>
<text xml:space="preserve" text-anchor="start" x="8" y="-36.5" font-family="Helvetica,sans-Serif" font-size="10.00">tile_compile::astrometry</text>
<text xml:space="preserve" text-anchor="middle" x="60.5" y="-26" font-family="Helvetica,sans-Serif" font-size="10.00">::apply_color_matrix</text>
</a>
</g>
</g>
<!-- Node5&#45;&gt;Node6 -->
<g id="edge5_Node000005_Node000006" class="edge">
<title>Node5&#45;&gt;Node6</title>
<g id="a_edge5_Node000005_Node000006"><a xlink:title=" ">
<path fill="none" stroke="#63b8ff" d="M162.38,-23.39C148.69,-25.03 134.56,-26.73 121.36,-28.31"/>
<polygon fill="#63b8ff" stroke="#63b8ff" points="162.72,-26.87 172.23,-22.2 161.89,-19.92 162.72,-26.87"/>
</a>
</g>
</g>
<!-- Node7&#45;&gt;Node3 -->
<g id="edge9_Node000007_Node000003" class="edge">
<title>Node7&#45;&gt;Node3</title>
<g id="a_edge9_Node000007_Node000003"><a xlink:title=" ">
<path fill="none" stroke="#63b8ff" d="M145.44,-78.14C137.24,-79.64 129.08,-81.13 121.26,-82.57"/>
<polygon fill="#63b8ff" stroke="#63b8ff" points="145.92,-81.61 155.12,-76.37 144.66,-74.73 145.92,-81.61"/>
</a>
</g>
</g>
<!-- Node7&#45;&gt;Node6 -->
<g id="edge8_Node000007_Node000006" class="edge">
<title>Node7&#45;&gt;Node6</title>
<g id="a_edge8_Node000007_Node000006"><a xlink:title=" ">
<path fill="none" stroke="#63b8ff" d="M145.44,-47.98C137.24,-46.76 129.08,-45.55 121.26,-44.38"/>
<polygon fill="#63b8ff" stroke="#63b8ff" points="144.71,-51.41 155.12,-49.42 145.74,-44.49 144.71,-51.41"/>
</a>
</g>
</g>
</g>
</svg>
