<?xml version="1.0" encoding="UTF-8" standalone="no"?>
<!DOCTYPE svg PUBLIC "-//W3C//DTD SVG 1.1//EN"
 "http://www.w3.org/Graphics/SVG/1.1/DTD/svg11.dtd">
<!-- Generated by graphviz version 13.1.2 (20250808.2320)
 -->
<!-- Title: src/astrometry/wcs.cpp Pages: 1 -->
<svg width="374pt" height="146pt"
 viewBox="0.00 0.00 374.00 146.00" xmlns="http://www.w3.org/2000/svg" xmlns:xlink="http://www.w3.org/1999/xlink">

<svg id="main" version="1.1" xmlns="http://www.w3.org/2000/svg" xmlns:xlink="http://www.w3.org/1999/xlink" xml:space="preserve">

<style type="text/css"><![CDATA[
.node, .edge {opacity: 0.7;}
.node.selected, .edge.selected {opacity: 1;}
.edge:hover path { stroke: red; }
.edge:hover polygon { stroke: red; fill: red; }
]]></style>
<script type="application/ecmascript" xlink:href="svg.min.js"/>
<svg id="graph" class="graph">
<g id="graph0" class="graph" transform="scale(1 1) rotate(0) translate(4 142)">
<title>src/astrometry/wcs.cpp</title>
<!-- Node1 -->
<g id="Node000001" class="node">
<title>Node1</title>
<g id="a_Node000001"><a xlink:title=" ">
<polygon fill="#999999" stroke="#666666" points="246.28,-138 126.78,-138 126.78,-119.5 246.28,-119.5 246.28,-138"/>
<text xml:space="preserve" text-anchor="middle" x="186.53" y="-124.5" font-family="Helvetica,sans-Serif" font-size="10.00">src/astrometry/wcs.cpp</text>
</a>
</g>
</g>
<!-- Node2 -->
<g id="Node000002" class="node">
<title>Node2</title>
<g id="a_Node000002"><a xlink:href="wcs_8hpp.html" target="_top" xlink:title=" ">
<polygon fill="white" stroke="#666666" points="132.53,-83.5 14.53,-83.5 14.53,-54.5 132.53,-54.5 132.53,-83.5"/>
<text xml:space="preserve" text-anchor="start" x="22.53" y="-70" font-family="Helvetica,sans-Serif" font-size="10.00">tile_compile/astrometry</text>
<text xml:space="preserve" text-anchor="middle" x="73.53" y="-59.5" font-family="Helvetica,sans-Serif" font-size="10.00">/wcs.hpp</text>
</a>
</g>
</g>
<!-- Node1&#45;&gt;Node2 -->
<g id="edge1_Node000001_Node000002" class="edge">
<title>Node1&#45;&gt;Node2</title>
<g id="a_edge1_Node000001_Node000002"><a xlink:title=" ">
<path fill="none" stroke="#63b8ff" d="M169.86,-119.23C154.38,-111.32 130.8,-99.27 110.84,-89.07"/>
<polygon fill="#63b8ff" stroke="#63b8ff" points="112.64,-86.06 102.14,-84.62 109.45,-92.29 112.64,-86.06"/>
</a>
</g>
</g>
<!-- Node3 -->
<g id="Node000003" class="node">
<title>Node3</title>
<g id="a_Node000003"><a xlink:title=" ">
<polygon fill="#e0e0e0" stroke="#999999" points="58.03,-18.5 15.03,-18.5 15.03,0 58.03,0 58.03,-18.5"/>
<text xml:space="preserve" text-anchor="middle" x="36.53" y="-5" font-family="Helvetica,sans-Serif" font-size="10.00">cmath</text>
</a>
</g>
</g>
<!-- Node1&#45;&gt;Node3 -->
<g id="edge4_Node000001_Node000003" class="edge">
<title>Node1&#45;&gt;Node3</title>
<g id="a_edge4_Node000001_Node000003"><a xlink:title=" ">
<path fill="none" stroke="#63b8ff" d="M126.37,-121.02C79.68,-114.42 20.46,-102.52 5.53,-83.5 -7.87,-66.43 6.86,-42.71 20.24,-26.94"/>
<polygon fill="#63b8ff" stroke="#63b8ff" points="22.59,-29.56 26.72,-19.81 17.41,-24.86 22.59,-29.56"/>
</a>
</g>
</g>
<!-- Node4 -->
<g id="Node000004" class="node">
<title>Node4</title>
<g id="a_Node000004"><a xlink:title=" ">
<polygon fill="#e0e0e0" stroke="#999999" points="129.53,-18.5 89.53,-18.5 89.53,0 129.53,0 129.53,-18.5"/>
<text xml:space="preserve" text-anchor="middle" x="109.53" y="-5" font-family="Helvetica,sans-Serif" font-size="10.00">string</text>
</a>
</g>
</g>
<!-- Node1&#45;&gt;Node4 -->
<g id="edge8_Node000001_Node000004" class="edge">
<title>Node1&#45;&gt;Node4</title>
<g id="a_edge8_Node000001_Node000004"><a xlink:title=" ">
<path fill="none" stroke="#63b8ff" d="M181.47,-119.05C173.35,-105.19 156.77,-77.34 141.53,-54.5 135.61,-45.63 128.71,-36.01 122.84,-28.01"/>
<polygon fill="#63b8ff" stroke="#63b8ff" points="125.77,-26.09 117,-20.14 120.15,-30.26 125.77,-26.09"/>
</a>
</g>
</g>
<!-- Node5 -->
<g id="Node000005" class="node">
<title>Node5</title>
<g id="a_Node000005"><a xlink:title=" ">
<polygon fill="#e0e0e0" stroke="#999999" points="238.03,-78.25 189.03,-78.25 189.03,-59.75 238.03,-59.75 238.03,-78.25"/>
<text xml:space="preserve" text-anchor="middle" x="213.53" y="-64.75" font-family="Helvetica,sans-Serif" font-size="10.00">fstream</text>
</a>
</g>
</g>
<!-- Node1&#45;&gt;Node5 -->
<g id="edge5_Node000001_Node000005" class="edge">
<title>Node1&#45;&gt;Node5</title>
<g id="a_edge5_Node000001_Node000005"><a xlink:title=" ">
<path fill="none" stroke="#63b8ff" d="M190.51,-119.23C194.22,-111.3 199.88,-99.19 204.66,-88.97"/>
<polygon fill="#63b8ff" stroke="#63b8ff" points="207.82,-90.47 208.89,-79.93 201.48,-87.5 207.82,-90.47"/>
</a>
</g>
</g>
<!-- Node6 -->
<g id="Node000006" class="node">
<title>Node6</title>
<g id="a_Node000006"><a xlink:title=" ">
<polygon fill="#e0e0e0" stroke="#999999" points="297.28,-78.25 255.78,-78.25 255.78,-59.75 297.28,-59.75 297.28,-78.25"/>
<text xml:space="preserve" text-anchor="middle" x="276.53" y="-64.75" font-family="Helvetica,sans-Serif" font-size="10.00">locale</text>
</a>
</g>
</g>
<!-- Node1&#45;&gt;Node6 -->
<g id="edge6_Node000001_Node000006" class="edge">
<title>Node1&#45;&gt;Node6</title>
<g id="a_edge6_Node000001_Node000006"><a xlink:title=" ">
<path fill="none" stroke="#63b8ff" d="M199.81,-119.23C213.95,-110.15 236.6,-95.62 253.63,-84.69"/>
<polygon fill="#63b8ff" stroke="#63b8ff" points="255.1,-87.91 261.63,-79.56 251.32,-82.02 255.1,-87.91"/>
</a>
</g>
</g>
<!-- Node7 -->
<g id="Node000007" class="node">
<title>Node7</title>
<g id="a_Node000007"><a xlink:title=" ">
<polygon fill="#e0e0e0" stroke="#999999" points="366.15,-78.25 314.9,-78.25 314.9,-59.75 366.15,-59.75 366.15,-78.25"/>
<text xml:space="preserve" text-anchor="middle" x="340.53" y="-64.75" font-family="Helvetica,sans-Serif" font-size="10.00">sstream</text>
</a>
</g>
</g>
<!-- Node1&#45;&gt;Node7 -->
<g id="edge7_Node000001_Node000007" class="edge">
<title>Node1&#45;&gt;Node7</title>
<g id="a_edge7_Node000001_Node000007"><a xlink:title=" ">
<path fill="none" stroke="#63b8ff" d="M210.5,-119.11C234.77,-110.31 273.35,-96.2 306.53,-83.5 307.16,-83.26 307.8,-83.01 308.44,-82.77"/>
<polygon fill="#63b8ff" stroke="#63b8ff" points="309.53,-86.1 317.57,-79.2 306.98,-79.58 309.53,-86.1"/>
</a>
</g>
</g>
<!-- Node2&#45;&gt;Node3 -->
<g id="edge2_Node000002_Node000003" class="edge">
<title>Node2&#45;&gt;Node3</title>
<g id="a_edge2_Node000002_Node000003"><a xlink:title=" ">
<path fill="none" stroke="#63b8ff" d="M64.57,-54.02C59.64,-46.32 53.46,-36.68 48.16,-28.4"/>
<polygon fill="#63b8ff" stroke="#63b8ff" points="51.23,-26.71 42.89,-20.18 45.34,-30.49 51.23,-26.71"/>
</a>
</g>
</g>
<!-- Node2&#45;&gt;Node4 -->
<g id="edge3_Node000002_Node000004" class="edge">
<title>Node2&#45;&gt;Node4</title>
<g id="a_edge3_Node000002_Node000004"><a xlink:title=" ">
<path fill="none" stroke="#63b8ff" d="M82.24,-54.02C87.04,-46.32 93.05,-36.68 98.21,-28.4"/>
<polygon fill="#63b8ff" stroke="#63b8ff" points="101.01,-30.53 103.33,-20.19 95.07,-26.82 101.01,-30.53"/>
</a>
</g>
</g>
</g>
</svg>
</svg>

<style type='text/css'>
<![CDATA[
[data-mouse-over-selected='false'] { opacity: 0.7; }
[data-mouse-over-selected='true']  { opacity: 1.0; }
]]>
</style>
<script type="application/ecmascript"><![CDATA[
document.addEventListener('DOMContentLoaded', (event) => {
  highlightEdges();
  highlightAdjacentNodes();
});
]]></script>
</svg>
