<?xml version="1.0" encoding="UTF-8" standalone="no"?>
<!DOCTYPE svg PUBLIC "-//W3C//DTD SVG 1.1//EN"
 "http://www.w3.org/Graphics/SVG/1.1/DTD/svg11.dtd">
<!-- Generated by graphviz version 13.1.2 (20250808.2320)
 -->
<!-- Title: tile_compile::astrometry::measure_stars Pages: 1 -->
<svg width="300pt" height="433pt"
 viewBox="0.00 0.00 300.00 433.00" xmlns="http://www.w3.org/2000/svg" xmlns:xlink="http://www.w3.org/1999/xlink">
<g id="graph0" class="graph" transform="scale(1 1) rotate(0) translate(4 429)">
<title>tile_compile::astrometry::measure_stars</title>
<!-- Node1 -->
<g id="Node000001" class="node">
<title>Node1</title>
<g id="a_Node000001"><a xlink:title="Implements measure stars.">
<polygon fill="#999999" stroke="#666666" points="121,-222 0,-222 0,-193 121,-193 121,-222"/>
<text xml:space="preserve" text-anchor="start" x="8" y="-208.5" font-family="Helvetica,sans-Serif" font-size="10.00">tile_compile::astrometry</text>
<text xml:space="preserve" text-anchor="middle" x="60.5" y="-198" font-family="Helvetica,sans-Serif" font-size="10.00">::measure_stars</text>
</a>
</g>
</g>
<!-- Node2 -->
<g id="Node000002" class="node">
<title>Node2</title>
<g id="a_Node000002"><a xlink:href="namespacetile__compile_1_1astrometry.html#aeb063b2fc3f3030d687b2ab6d4c9c17c" target="_top" xlink:title="Implements annulus safe fraction.">
<polygon fill="white" stroke="#666666" points="284.75,-425 163.75,-425 163.75,-396 284.75,-396 284.75,-425"/>
<text xml:space="preserve" text-anchor="start" x="171.75" y="-411.5" font-family="Helvetica,sans-Serif" font-size="10.00">tile_compile::astrometry</text>
<text xml:space="preserve" text-anchor="middle" x="224.25" y="-401" font-family="Helvetica,sans-Serif" font-size="10.00">::annulus_safe_fraction</text>
</a>
</g>
</g>
<!-- Node1&#45;&gt;Node2 -->
<g id="edge1_Node000001_Node000002" class="edge">
<title>Node1&#45;&gt;Node2</title>
<g id="a_edge1_Node000001_Node000002"><a xlink:title=" ">
<path fill="none" stroke="#63b8ff" d="M65.35,-222.45C74.93,-256.65 103.01,-341.23 157,-387.5 157.79,-388.18 158.6,-388.83 159.43,-389.47"/>
<polygon fill="#63b8ff" stroke="#63b8ff" points="157.35,-392.29 167.64,-394.78 161.14,-386.41 157.35,-392.29"/>
</a>
</g>
</g>
<!-- Node3 -->
<g id="Node000003" class="node">
<title>Node3</title>
<g id="a_Node000003"><a xlink:href="namespacetile__compile_1_1astrometry.html#ad6370de619d90565e4f5c2ef26ac7eb5" target="_top" xlink:title="Implements aperture flux.">
<polygon fill="white" stroke="#666666" points="284.75,-378 163.75,-378 163.75,-349 284.75,-349 284.75,-378"/>
<text xml:space="preserve" text-anchor="start" x="171.75" y="-364.5" font-family="Helvetica,sans-Serif" font-size="10.00">tile_compile::astrometry</text>
<text xml:space="preserve" text-anchor="middle" x="224.25" y="-354" font-family="Helvetica,sans-Serif" font-size="10.00">::aperture_flux</text>
</a>
</g>
</g>
<!-- Node1&#45;&gt;Node3 -->
<g id="edge2_Node000001_Node000003" class="edge">
<title>Node1&#45;&gt;Node3</title>
<g id="a_edge2_Node000001_Node000003"><a xlink:title=" ">
<path fill="none" stroke="#63b8ff" d="M68.22,-222.16C81.41,-249.37 113.26,-307.86 157,-340.5 158.15,-341.36 159.34,-342.19 160.56,-342.99"/>
<polygon fill="#63b8ff" stroke="#63b8ff" points="158.62,-345.91 169.04,-347.82 162.08,-339.83 158.62,-345.91"/>
</a>
</g>
</g>
<!-- Node4 -->
<g id="Node000004" class="node">
<title>Node4</title>
<g id="a_Node000004"><a xlink:href="namespacetile__compile_1_1image.html#a5abad731013264bf536833d91e60c52a" target="_top" xlink:title="Builds chroma background mask from rgb.">
<polygon fill="white" stroke="#666666" points="291.5,-331.25 157,-331.25 157,-291.75 291.5,-291.75 291.5,-331.25"/>
<text xml:space="preserve" text-anchor="start" x="165" y="-317.75" font-family="Helvetica,sans-Serif" font-size="10.00">tile_compile::image</text>
<text xml:space="preserve" text-anchor="start" x="165" y="-307.25" font-family="Helvetica,sans-Serif" font-size="10.00">::build_chroma_background</text>
<text xml:space="preserve" text-anchor="middle" x="224.25" y="-296.75" font-family="Helvetica,sans-Serif" font-size="10.00">_mask_from_rgb</text>
</a>
</g>
</g>
<!-- Node1&#45;&gt;Node4 -->
<g id="edge3_Node000001_Node000004" class="edge">
<title>Node1&#45;&gt;Node4</title>
<g id="a_edge3_Node000001_Node000004"><a xlink:title=" ">
<path fill="none" stroke="#63b8ff" d="M77.4,-222.41C95.58,-238.91 126.76,-265.54 157,-283.5 158.44,-284.36 159.92,-285.2 161.41,-286.03"/>
<polygon fill="#63b8ff" stroke="#63b8ff" points="159.73,-289.1 170.22,-290.6 162.96,-282.89 159.73,-289.1"/>
</a>
</g>
</g>
<!-- Node5 -->
<g id="Node000005" class="node">
<title>Node5</title>
<g id="a_Node000005"><a xlink:href="namespacetile__compile_1_1astrometry.html#ac21ef6045cc61cee27acaa7fa31bd282" target="_top" xlink:title="Estimates teff from xp.">
<polygon fill="white" stroke="#666666" points="284.75,-274 163.75,-274 163.75,-245 284.75,-245 284.75,-274"/>
<text xml:space="preserve" text-anchor="start" x="171.75" y="-260.5" font-family="Helvetica,sans-Serif" font-size="10.00">tile_compile::astrometry</text>
<text xml:space="preserve" text-anchor="middle" x="224.25" y="-250" font-family="Helvetica,sans-Serif" font-size="10.00">::estimate_teff_from_xp</text>
</a>
</g>
</g>
<!-- Node1&#45;&gt;Node5 -->
<g id="edge4_Node000001_Node000005" class="edge">
<title>Node1&#45;&gt;Node5</title>
<g id="a_edge4_Node000001_Node000005"><a xlink:title=" ">
<path fill="none" stroke="#63b8ff" d="M107.85,-222.4C125.88,-228.2 146.72,-234.9 165.69,-241"/>
<polygon fill="#63b8ff" stroke="#63b8ff" points="164.58,-244.31 175.17,-244.04 166.72,-237.65 164.58,-244.31"/>
</a>
</g>
</g>
<!-- Node6 -->
<g id="Node000006" class="node">
<title>Node6</title>
<g id="a_Node000006"><a xlink:href="namespacetile__compile_1_1astrometry.html#a21f882eae16b13cabd29e57af4b7806b" target="_top" xlink:title="Implements keep largest connected component.">
<polygon fill="white" stroke="#666666" points="287.75,-227.25 160.75,-227.25 160.75,-187.75 287.75,-187.75 287.75,-227.25"/>
<text xml:space="preserve" text-anchor="start" x="168.75" y="-213.75" font-family="Helvetica,sans-Serif" font-size="10.00">tile_compile::astrometry</text>
<text xml:space="preserve" text-anchor="start" x="168.75" y="-203.25" font-family="Helvetica,sans-Serif" font-size="10.00">::keep_largest_connected</text>
<text xml:space="preserve" text-anchor="middle" x="224.25" y="-192.75" font-family="Helvetica,sans-Serif" font-size="10.00">_component</text>
</a>
</g>
</g>
<!-- Node1&#45;&gt;Node6 -->
<g id="edge5_Node000001_Node000006" class="edge">
<title>Node1&#45;&gt;Node6</title>
<g id="a_edge5_Node000001_Node000006"><a xlink:title=" ">
<path fill="none" stroke="#63b8ff" d="M121.27,-207.5C130.36,-207.5 139.82,-207.5 149.17,-207.5"/>
<polygon fill="#63b8ff" stroke="#63b8ff" points="148.96,-211 158.96,-207.5 148.96,-204 148.96,-211"/>
</a>
</g>
</g>
<!-- Node7 -->
<g id="Node000007" class="node">
<title>Node7</title>
<g id="a_Node000007"><a xlink:href="namespacetile__compile_1_1astrometry.html#ae8e706eb295c574495cbf8389b8f5355" target="_top" xlink:title="Implements radial support fraction.">
<polygon fill="white" stroke="#666666" points="284.75,-170 163.75,-170 163.75,-141 284.75,-141 284.75,-170"/>
<text xml:space="preserve" text-anchor="start" x="171.75" y="-156.5" font-family="Helvetica,sans-Serif" font-size="10.00">tile_compile::astrometry</text>
<text xml:space="preserve" text-anchor="middle" x="224.25" y="-146" font-family="Helvetica,sans-Serif" font-size="10.00">::radial_support_fraction</text>
</a>
</g>
</g>
<!-- Node1&#45;&gt;Node7 -->
<g id="edge6_Node000001_Node000007" class="edge">
<title>Node1&#45;&gt;Node7</title>
<g id="a_edge6_Node000001_Node000007"><a xlink:title=" ">
<path fill="none" stroke="#63b8ff" d="M107.85,-192.6C125.88,-186.8 146.72,-180.1 165.69,-174"/>
<polygon fill="#63b8ff" stroke="#63b8ff" points="166.72,-177.35 175.17,-170.96 164.58,-170.69 166.72,-177.35"/>
</a>
</g>
</g>
<!-- Node8 -->
<g id="Node000008" class="node">
<title>Node8</title>
<g id="a_Node000008"><a xlink:href="namespacetile__compile_1_1astrometry.html#aec7a47d085b52c28f88b19622b550258" target="_top" xlink:title="Implements sampled high percentile.">
<polygon fill="white" stroke="#666666" points="288.88,-123 159.62,-123 159.62,-94 288.88,-94 288.88,-123"/>
<text xml:space="preserve" text-anchor="start" x="167.62" y="-109.5" font-family="Helvetica,sans-Serif" font-size="10.00">tile_compile::astrometry</text>
<text xml:space="preserve" text-anchor="middle" x="224.25" y="-99" font-family="Helvetica,sans-Serif" font-size="10.00">::sampled_high_percentile</text>
</a>
</g>
</g>
<!-- Node1&#45;&gt;Node8 -->
<g id="edge7_Node000001_Node000008" class="edge">
<title>Node1&#45;&gt;Node8</title>
<g id="a_edge7_Node000001_Node000008"><a xlink:title=" ">
<path fill="none" stroke="#63b8ff" d="M77.27,-192.51C95.33,-175.98 126.4,-149.48 157,-132.5 159.81,-130.94 162.74,-129.45 165.73,-128.03"/>
<polygon fill="#63b8ff" stroke="#63b8ff" points="166.96,-131.31 174.71,-124.08 164.14,-124.9 166.96,-131.31"/>
</a>
</g>
</g>
<!-- Node9 -->
<g id="Node000009" class="node">
<title>Node9</title>
<g id="a_Node000009"><a xlink:href="structtile__compile_1_1astrometry_1_1WCS.html#aeaedba3765f38e6ca3229645beb3b79a" target="_top" xlink:title=" ">
<polygon fill="white" stroke="#666666" points="284.75,-76 163.75,-76 163.75,-47 284.75,-47 284.75,-76"/>
<text xml:space="preserve" text-anchor="start" x="171.75" y="-62.5" font-family="Helvetica,sans-Serif" font-size="10.00">tile_compile::astrometry</text>
<text xml:space="preserve" text-anchor="middle" x="224.25" y="-52" font-family="Helvetica,sans-Serif" font-size="10.00">::WCS::sky_to_pixel</text>
</a>
</g>
</g>
<!-- Node1&#45;&gt;Node9 -->
<g id="edge8_Node000001_Node000009" class="edge">
<title>Node1&#45;&gt;Node9</title>
<g id="a_edge8_Node000001_Node000009"><a xlink:title=" ">
<path fill="none" stroke="#63b8ff" d="M69.47,-192.53C83.74,-167.06 116.05,-115.17 157,-85.5 158.78,-84.21 160.64,-82.98 162.56,-81.81"/>
<polygon fill="#63b8ff" stroke="#63b8ff" points="164.04,-84.99 171.2,-77.18 160.73,-78.82 164.04,-84.99"/>
</a>
</g>
</g>
<!-- Node10 -->
<g id="Node000010" class="node">
<title>Node10</title>
<g id="a_Node000010"><a xlink:href="namespacetile__compile_1_1astrometry.html#a6a8cdcd6938470f17b75cafd244d0578" target="_top" xlink:title="Implements teff to rgb.">
<polygon fill="white" stroke="#666666" points="284.75,-29 163.75,-29 163.75,0 284.75,0 284.75,-29"/>
<text xml:space="preserve" text-anchor="start" x="171.75" y="-15.5" font-family="Helvetica,sans-Serif" font-size="10.00">tile_compile::astrometry</text>
<text xml:space="preserve" text-anchor="middle" x="224.25" y="-5" font-family="Helvetica,sans-Serif" font-size="10.00">::teff_to_rgb</text>
</a>
</g>
</g>
<!-- Node1&#45;&gt;Node10 -->
<g id="edge9_Node000001_Node000010" class="edge">
<title>Node1&#45;&gt;Node10</title>
<g id="a_edge9_Node000001_Node000010"><a xlink:title=" ">
<path fill="none" stroke="#63b8ff" d="M65.98,-192.54C76.49,-159.91 105.79,-81.81 157,-38.5 158.28,-37.41 159.62,-36.38 161,-35.38"/>
<polygon fill="#63b8ff" stroke="#63b8ff" points="162.67,-38.47 169.36,-30.26 159.01,-32.5 162.67,-38.47"/>
</a>
</g>
</g>
</g>
</svg>
