<?xml version="1.0" encoding="UTF-8" standalone="no"?>
<!DOCTYPE svg PUBLIC "-//W3C//DTD SVG 1.1//EN"
 "http://www.w3.org/Graphics/SVG/1.1/DTD/svg11.dtd">
<!-- Generated by graphviz version 13.1.2 (20250808.2320)
 -->
<!-- Title: include/tile_compile/reconstruction/reconstruction.hpp Pages: 1 -->
<!--zoomable 157 -->

<svg id="main" version="1.1" xmlns="http://www.w3.org/2000/svg" xmlns:xlink="http://www.w3.org/1999/xlink" xml:space="preserve" onload="init(evt)">

<style type="text/css"><![CDATA[
.node, .edge {opacity: 0.7;}
.node.selected, .edge.selected {opacity: 1;}
.edge:hover path { stroke: red; }
.edge:hover polygon { stroke: red; fill: red; }
]]></style>

<defs>
  <circle id="rim" cx="0" cy="0" r="7"/>
  <circle id="rim2" cx="0" cy="0" r="3.5"/>
  <g id="zoomPlus">
    <use xlink:href="#rim" fill="#404040"><set attributeName="fill" to="#808080" begin="zoomplus.mouseover" end="zoomplus.mouseout"/></use>
    <path d="M-4,0h8M0,-4v8" fill="none" stroke="white" stroke-width="1.5" pointer-events="none"/>
  </g>
  <g id="zoomMin">
    <use xlink:href="#rim" fill="#404040"><set attributeName="fill" to="#808080" begin="zoomminus.mouseover" end="zoomminus.mouseout"/></use>
    <path d="M-4,0h8" fill="none" stroke="white" stroke-width="1.5" pointer-events="none"/>
  </g>
  <g id="arrowUp" transform="translate(30 24)">
    <use xlink:href="#rim"/>
    <path pointer-events="none" fill="none" stroke="white" stroke-width="1.5" d="M0,-3.0v7 M-2.5,-0.5L0,-3.0L2.5,-0.5"/>
  </g>
  <g id="arrowRight" transform="rotate(90) translate(36 -43)">
    <use xlink:href="#rim"/>
    <path pointer-events="none" fill="none" stroke="white" stroke-width="1.5" d="M0,-3.0v7 M-2.5,-0.5L0,-3.0L2.5,-0.5"/>
  </g>
  <g id="arrowDown" transform="rotate(180) translate(-30 -48)">
    <use xlink:href="#rim"/>
    <path pointer-events="none" fill="none" stroke="white" stroke-width="1.5" d="M0,-3.0v7 M-2.5,-0.5L0,-3.0L2.5,-0.5"/>
  </g>
  <g id="arrowLeft" transform="rotate(270) translate(-36 17)">
    <use xlink:href="#rim"/>
    <path pointer-events="none" fill="none" stroke="white" stroke-width="1.5" d="M0,-3.0v7 M-2.5,-0.5L0,-3.0L2.5,-0.5"/>
  </g>
  <g id="resetDef">
    <use xlink:href="#rim2" fill="#404040"><set attributeName="fill" to="#808080" begin="reset.mouseover" end="reset.mouseout"/></use>
  </g>
</defs>
<script type="application/ecmascript">
var viewWidth = 606;
var viewHeight = 157;
var sectionId = 'dynsection-1';
</script>
<script type="application/ecmascript" xlink:href="svg.min.js"/>
<svg id="graph" class="graph">
<g id="viewport">
<title>include/tile_compile/reconstruction/reconstruction.hpp</title>
<!-- Node1 -->
<g id="Node000001" class="node">
<title>Node1</title>
<g id="a_Node000001"><a xlink:title=" ">
<polygon fill="#999999" stroke="#666666" points="285.88,-148.5 122.12,-148.5 122.12,-119.5 285.88,-119.5 285.88,-148.5"/>
<text xml:space="preserve" text-anchor="start" x="130.12" y="-135" font-family="Helvetica,sans-Serif" font-size="10.00">include/tile_compile</text>
<text xml:space="preserve" text-anchor="middle" x="204" y="-124.5" font-family="Helvetica,sans-Serif" font-size="10.00">/reconstruction/reconstruction.hpp</text>
</a>
</g>
</g>
<!-- Node2 -->
<g id="Node000002" class="node">
<title>Node2</title>
<g id="a_Node000002"><a xlink:href="runner__pipeline_8cpp.html" target="_top" xlink:title=" ">
<polygon fill="white" stroke="#666666" points="124,-18.5 0,-18.5 0,0 124,0 124,-18.5"/>
<text xml:space="preserve" text-anchor="middle" x="62" y="-5" font-family="Helvetica,sans-Serif" font-size="10.00">apps/runner_pipeline.cpp</text>
</a>
</g>
</g>
<!-- Node1&#45;&gt;Node2 -->
<g id="edge1_Node000001_Node000002" class="edge">
<title>Node1&#45;&gt;Node2</title>
<g id="a_edge1_Node000001_Node000002"><a xlink:title=" ">
<path fill="none" stroke="#63b8ff" d="M179.67,-111.97C147.95,-84.54 93.89,-37.81 71.82,-18.74"/>
<polygon fill="#63b8ff" stroke="#63b8ff" points="176.99,-114.28 186.84,-118.17 181.57,-108.98 176.99,-114.28"/>
</a>
</g>
</g>
<!-- Node3 -->
<g id="Node000003" class="node">
<title>Node3</title>
<g id="a_Node000003"><a xlink:href="runner__resume_8cpp.html" target="_top" xlink:title=" ">
<polygon fill="white" stroke="#666666" points="265.62,-18.5 142.38,-18.5 142.38,0 265.62,0 265.62,-18.5"/>
<text xml:space="preserve" text-anchor="middle" x="204" y="-5" font-family="Helvetica,sans-Serif" font-size="10.00">apps/runner_resume.cpp</text>
</a>
</g>
</g>
<!-- Node1&#45;&gt;Node3 -->
<g id="edge2_Node000001_Node000003" class="edge">
<title>Node1&#45;&gt;Node3</title>
<g id="a_edge2_Node000001_Node000003"><a xlink:title=" ">
<path fill="none" stroke="#63b8ff" d="M190.44,-109.29C186.6,-101.35 182.94,-92.28 181,-83.5 178.22,-70.91 177.94,-67.02 181,-54.5 184.25,-41.21 192.25,-27.47 197.9,-18.9"/>
<polygon fill="#63b8ff" stroke="#63b8ff" points="187.22,-110.69 194.94,-117.94 193.43,-107.45 187.22,-110.69"/>
</a>
</g>
</g>
<!-- Node4 -->
<g id="Node000004" class="node">
<title>Node4</title>
<g id="a_Node000004"><a xlink:href="acceleration_8hpp.html" target="_top" xlink:title=" ">
<polygon fill="white" stroke="#666666" points="302,-83.5 190,-83.5 190,-54.5 302,-54.5 302,-83.5"/>
<text xml:space="preserve" text-anchor="start" x="198" y="-70" font-family="Helvetica,sans-Serif" font-size="10.00">include/tile_compile</text>
<text xml:space="preserve" text-anchor="middle" x="246" y="-59.5" font-family="Helvetica,sans-Serif" font-size="10.00">/core/acceleration.hpp</text>
</a>
</g>
</g>
<!-- Node1&#45;&gt;Node4 -->
<g id="edge3_Node000001_Node000004" class="edge">
<title>Node1&#45;&gt;Node4</title>
<g id="a_edge3_Node000001_Node000004"><a xlink:title=" ">
<path fill="none" stroke="#63b8ff" d="M219.68,-109.48C225.41,-100.89 231.71,-91.44 236.7,-83.94"/>
<polygon fill="#63b8ff" stroke="#63b8ff" points="216.8,-107.5 214.16,-117.76 222.62,-111.38 216.8,-107.5"/>
</a>
</g>
</g>
<!-- Node7 -->
<g id="Node000007" class="node">
<title>Node7</title>
<g id="a_Node000007"><a xlink:href="reconstruction_8cpp.html" target="_top" xlink:title=" ">
<polygon fill="white" stroke="#666666" points="419.62,-83.5 320.38,-83.5 320.38,-54.5 419.62,-54.5 419.62,-83.5"/>
<text xml:space="preserve" text-anchor="start" x="328.38" y="-70" font-family="Helvetica,sans-Serif" font-size="10.00">src/reconstruction</text>
<text xml:space="preserve" text-anchor="middle" x="370" y="-59.5" font-family="Helvetica,sans-Serif" font-size="10.00">/reconstruction.cpp</text>
</a>
</g>
</g>
<!-- Node1&#45;&gt;Node7 -->
<g id="edge8_Node000001_Node000007" class="edge">
<title>Node1&#45;&gt;Node7</title>
<g id="a_edge8_Node000001_Node000007"><a xlink:title=" ">
<path fill="none" stroke="#63b8ff" d="M251.58,-114.94C277.55,-105.09 309.21,-93.07 333.26,-83.94"/>
<polygon fill="#63b8ff" stroke="#63b8ff" points="250.36,-111.66 242.26,-118.48 252.85,-118.21 250.36,-111.66"/>
</a>
</g>
</g>
<!-- Node4&#45;&gt;Node2 -->
<g id="edge5_Node000004_Node000002" class="edge">
<title>Node4&#45;&gt;Node2</title>
<g id="a_edge5_Node000004_Node000002"><a xlink:title=" ">
<path fill="none" stroke="#63b8ff" d="M190.51,-50.58C157.27,-40.15 116.43,-27.33 89.84,-18.99"/>
<polygon fill="#63b8ff" stroke="#63b8ff" points="189.43,-53.91 200.01,-53.57 191.52,-47.23 189.43,-53.91"/>
</a>
</g>
</g>
<!-- Node4&#45;&gt;Node3 -->
<g id="edge6_Node000004_Node000003" class="edge">
<title>Node4&#45;&gt;Node3</title>
<g id="a_edge6_Node000004_Node000003"><a xlink:title=" ">
<path fill="none" stroke="#63b8ff" d="M229.22,-44.93C222.56,-35.77 215.3,-25.79 210.29,-18.9"/>
<polygon fill="#63b8ff" stroke="#63b8ff" points="226.23,-46.77 234.94,-52.8 231.89,-42.65 226.23,-46.77"/>
</a>
</g>
</g>
<!-- Node5 -->
<g id="Node000005" class="node">
<title>Node5</title>
<g id="a_Node000005"><a xlink:href="runner__phase__registration_8cpp.html" target="_top" xlink:title=" ">
<polygon fill="white" stroke="#666666" points="454.25,-18.5 283.75,-18.5 283.75,0 454.25,0 454.25,-18.5"/>
<text xml:space="preserve" text-anchor="middle" x="369" y="-5" font-family="Helvetica,sans-Serif" font-size="10.00">apps/runner_phase_registration.cpp</text>
</a>
</g>
</g>
<!-- Node4&#45;&gt;Node5 -->
<g id="edge4_Node000004_Node000005" class="edge">
<title>Node4&#45;&gt;Node5</title>
<g id="a_edge4_Node000004_Node000005"><a xlink:title=" ">
<path fill="none" stroke="#63b8ff" d="M286.05,-49.19C307.78,-39 333.58,-26.88 350.57,-18.9"/>
<polygon fill="#63b8ff" stroke="#63b8ff" points="284.71,-45.96 277.14,-53.38 287.68,-52.3 284.71,-45.96"/>
</a>
</g>
</g>
<!-- Node6 -->
<g id="Node000006" class="node">
<title>Node6</title>
<g id="a_Node000006"><a xlink:href="acceleration_8cpp.html" target="_top" xlink:title=" ">
<polygon fill="white" stroke="#666666" points="597.75,-18.5 472.25,-18.5 472.25,0 597.75,0 597.75,-18.5"/>
<text xml:space="preserve" text-anchor="middle" x="535" y="-5" font-family="Helvetica,sans-Serif" font-size="10.00">src/core/acceleration.cpp</text>
</a>
</g>
</g>
<!-- Node4&#45;&gt;Node6 -->
<g id="edge7_Node000004_Node000006" class="edge">
<title>Node4&#45;&gt;Node6</title>
<g id="a_edge7_Node000004_Node000006"><a xlink:title=" ">
<path fill="none" stroke="#63b8ff" d="M313.57,-53.99C380.68,-40.43 447.51,-27.3 490.35,-18.94"/>
<polygon fill="#63b8ff" stroke="#63b8ff" points="312.95,-50.54 303.85,-55.96 314.34,-57.4 312.95,-50.54"/>
</a>
</g>
</g>
</g>
</svg>

<g id="navigator" transform="translate(0 0)" fill="#404254">
  <rect fill="#f2f5e9" fill-opacity="0.5" stroke="#606060" stroke-width=".5" x="0" y="0" width="60" height="60"/>
  <use id="zoomplus" xlink:href="#zoomPlus" x="17" y="9" onmousedown="handleZoom(evt,'in')"/>
  <use id="zoomminus" xlink:href="#zoomMin" x="42" y="9" onmousedown="handleZoom(evt,'out')"/>
  <use id="reset" xlink:href="#resetDef" x="30" y="36" onmousedown="handleReset()"/>
   <use id="arrowup" xlink:href="#arrowUp" x="0" y="0" onmousedown="handlePan(0,-1)"/>
  <use id="arrowright" xlink:href="#arrowRight" x="0" y="0" onmousedown="handlePan(1,0)"/>
  <use id="arrowdown" xlink:href="#arrowDown" x="0" y="0" onmousedown="handlePan(0,1)"/>
  <use id="arrowleft" xlink:href="#arrowLeft" x="0" y="0" onmousedown="handlePan(-1,0)"/>
</g>
<svg viewBox="0 0 15 15" width="100%" height="30px" preserveAspectRatio="xMaxYMin meet">
 <g id="arrow_out" transform="scale(0.3 0.3)">
  <a xlink:href="reconstruction_8hpp__dep__incl_org.svg" target="_base">
   <rect id="button" ry="5" rx="5" y="6" x="6" height="38" width="38"
        fill="#f2f5e9" fill-opacity="0.5" stroke="#606060" stroke-width="1.0"/>
   <path id="arrow"
     d="M 11.500037,31.436501 C 11.940474,20.09759 22.043105,11.32322 32.158766,21.979434 L 37.068811,17.246167 C 37.068811,17.246167 37.088388,32 37.088388,32 L 22.160133,31.978069 C 22.160133,31.978069 26.997745,27.140456 26.997745,27.140456 C 18.528582,18.264221 13.291696,25.230495 11.500037,31.436501 z"
     style="fill:#404040;"/>
  </a>
 </g>
</svg>

<style type='text/css'>
<![CDATA[
[data-mouse-over-selected='false'] { opacity: 0.7; }
[data-mouse-over-selected='true']  { opacity: 1.0; }
]]>
</style>
<script type="application/ecmascript"><![CDATA[
document.addEventListener('DOMContentLoaded', (event) => {
  highlightEdges();
  highlightAdjacentNodes();
});
]]></script>
</svg>
