<?xml version="1.0" encoding="UTF-8" standalone="no"?>
<!DOCTYPE svg PUBLIC "-//W3C//DTD SVG 1.1//EN"
 "http://www.w3.org/Graphics/SVG/1.1/DTD/svg11.dtd">
<!-- Generated by graphviz version 13.1.2 (20250808.2320)
 -->
<!-- Title: apps/runner_phase_metrics.hpp Pages: 1 -->
<svg width="304pt" height="81pt"
 viewBox="0.00 0.00 304.00 81.00" xmlns="http://www.w3.org/2000/svg" xmlns:xlink="http://www.w3.org/1999/xlink">
<g id="graph0" class="graph" transform="scale(1 1) rotate(0) translate(4 77)">
<title>apps/runner_phase_metrics.hpp</title>
<!-- Node1 -->
<g id="Node000001" class="node">
<title>Node1</title>
<g id="a_Node000001"><a xlink:title=" ">
<polygon fill="#999999" stroke="#666666" points="232.75,-73 78,-73 78,-54.5 232.75,-54.5 232.75,-73"/>
<text xml:space="preserve" text-anchor="middle" x="155.38" y="-59.5" font-family="Helvetica,sans-Serif" font-size="10.00">apps/runner_phase_metrics.hpp</text>
</a>
</g>
</g>
<!-- Node2 -->
<g id="Node000002" class="node">
<title>Node2</title>
<g id="a_Node000002"><a xlink:href="runner__phase__metrics_8cpp.html" target="_top" xlink:title=" ">
<polygon fill="white" stroke="#666666" points="154.75,-18.5 0,-18.5 0,0 154.75,0 154.75,-18.5"/>
<text xml:space="preserve" text-anchor="middle" x="77.38" y="-5" font-family="Helvetica,sans-Serif" font-size="10.00">apps/runner_phase_metrics.cpp</text>
</a>
</g>
</g>
<!-- Node1&#45;&gt;Node2 -->
<g id="edge1_Node000001_Node000002" class="edge">
<title>Node1&#45;&gt;Node2</title>
<g id="a_edge1_Node000001_Node000002"><a xlink:title=" ">
<path fill="none" stroke="#63b8ff" d="M133.15,-47.79C119.28,-38.45 101.91,-26.76 90.27,-18.93"/>
<polygon fill="#63b8ff" stroke="#63b8ff" points="130.99,-50.56 141.24,-53.24 134.9,-44.75 130.99,-50.56"/>
</a>
</g>
</g>
<!-- Node3 -->
<g id="Node000003" class="node">
<title>Node3</title>
<g id="a_Node000003"><a xlink:href="runner__pipeline_8cpp.html" target="_top" xlink:title=" ">
<polygon fill="white" stroke="#666666" points="296.38,-18.5 172.38,-18.5 172.38,0 296.38,0 296.38,-18.5"/>
<text xml:space="preserve" text-anchor="middle" x="234.38" y="-5" font-family="Helvetica,sans-Serif" font-size="10.00">apps/runner_pipeline.cpp</text>
</a>
</g>
</g>
<!-- Node1&#45;&gt;Node3 -->
<g id="edge2_Node000001_Node000003" class="edge">
<title>Node1&#45;&gt;Node3</title>
<g id="a_edge2_Node000001_Node000003"><a xlink:title=" ">
<path fill="none" stroke="#63b8ff" d="M177.89,-47.79C191.94,-38.45 209.53,-26.76 221.31,-18.93"/>
<polygon fill="#63b8ff" stroke="#63b8ff" points="176.07,-44.79 169.68,-53.24 179.95,-50.62 176.07,-44.79"/>
</a>
</g>
</g>
</g>
</svg>
