<?xml version="1.0" encoding="UTF-8" standalone="no"?>
<!DOCTYPE svg PUBLIC "-//W3C//DTD SVG 1.1//EN"
 "http://www.w3.org/Graphics/SVG/1.1/DTD/svg11.dtd">
<!-- Generated by graphviz version 13.1.2 (20250808.2320)
 -->
<!-- Title: include/tile_compile/core/utils.hpp Pages: 1 -->
<svg width="540pt" height="146pt"
 viewBox="0.00 0.00 540.00 146.00" xmlns="http://www.w3.org/2000/svg" xmlns:xlink="http://www.w3.org/1999/xlink">
<g id="graph0" class="graph" transform="scale(1 1) rotate(0) translate(4 142)">
<title>include/tile_compile/core/utils.hpp</title>
<!-- Node1 -->
<g id="Node000001" class="node">
<title>Node1</title>
<g id="a_Node000001"><a xlink:title=" ">
<polygon fill="#999999" stroke="#666666" points="468.5,-138 367,-138 367,-109 468.5,-109 468.5,-138"/>
<text xml:space="preserve" text-anchor="start" x="375" y="-124.5" font-family="Helvetica,sans-Serif" font-size="10.00">include/tile_compile</text>
<text xml:space="preserve" text-anchor="middle" x="417.75" y="-114" font-family="Helvetica,sans-Serif" font-size="10.00">/core/utils.hpp</text>
</a>
</g>
</g>
<!-- Node2 -->
<g id="Node000002" class="node">
<title>Node2</title>
<g id="a_Node000002"><a xlink:href="types_8hpp.html" target="_top" xlink:title=" ">
<polygon fill="white" stroke="#666666" points="362.12,-73 303.38,-73 303.38,-54.5 362.12,-54.5 362.12,-73"/>
<text xml:space="preserve" text-anchor="middle" x="332.75" y="-59.5" font-family="Helvetica,sans-Serif" font-size="10.00">types.hpp</text>
</a>
</g>
</g>
<!-- Node1&#45;&gt;Node2 -->
<g id="edge1_Node000001_Node000002" class="edge">
<title>Node1&#45;&gt;Node2</title>
<g id="a_edge1_Node000001_Node000002"><a xlink:title=" ">
<path fill="none" stroke="#63b8ff" d="M397.17,-108.52C384.33,-99.8 367.81,-88.57 354.72,-79.67"/>
<polygon fill="#63b8ff" stroke="#63b8ff" points="356.98,-76.98 346.74,-74.25 353.04,-82.77 356.98,-76.98"/>
</a>
</g>
</g>
<!-- Node6 -->
<g id="Node000006" class="node">
<title>Node6</title>
<g id="a_Node000006"><a xlink:title=" ">
<polygon fill="#e0e0e0" stroke="#999999" points="59.5,-18.5 0,-18.5 0,0 59.5,0 59.5,-18.5"/>
<text xml:space="preserve" text-anchor="middle" x="29.75" y="-5" font-family="Helvetica,sans-Serif" font-size="10.00">filesystem</text>
</a>
</g>
</g>
<!-- Node1&#45;&gt;Node6 -->
<g id="edge11_Node000001_Node000006" class="edge">
<title>Node1&#45;&gt;Node6</title>
<g id="a_edge11_Node000001_Node000006"><a xlink:title=" ">
<path fill="none" stroke="#63b8ff" d="M369.39,-108.51C292.36,-86.22 143.12,-43.05 70.89,-22.15"/>
<polygon fill="#63b8ff" stroke="#63b8ff" points="72.02,-18.83 61.44,-19.42 70.07,-25.56 72.02,-18.83"/>
</a>
</g>
</g>
<!-- Node9 -->
<g id="Node000009" class="node">
<title>Node9</title>
<g id="a_Node000009"><a xlink:title=" ">
<polygon fill="#e0e0e0" stroke="#999999" points="465.75,-18.5 425.75,-18.5 425.75,0 465.75,0 465.75,-18.5"/>
<text xml:space="preserve" text-anchor="middle" x="445.75" y="-5" font-family="Helvetica,sans-Serif" font-size="10.00">string</text>
</a>
</g>
</g>
<!-- Node1&#45;&gt;Node9 -->
<g id="edge12_Node000001_Node000009" class="edge">
<title>Node1&#45;&gt;Node9</title>
<g id="a_edge12_Node000001_Node000009"><a xlink:title=" ">
<path fill="none" stroke="#63b8ff" d="M421.18,-108.74C426.11,-88.98 435.22,-52.47 440.85,-29.89"/>
<polygon fill="#63b8ff" stroke="#63b8ff" points="444.19,-30.98 443.21,-20.43 437.39,-29.29 444.19,-30.98"/>
</a>
</g>
</g>
<!-- Node10 -->
<g id="Node000010" class="node">
<title>Node10</title>
<g id="a_Node000010"><a xlink:title=" ">
<polygon fill="#e0e0e0" stroke="#999999" points="525.88,-18.5 483.62,-18.5 483.62,0 525.88,0 525.88,-18.5"/>
<text xml:space="preserve" text-anchor="middle" x="504.75" y="-5" font-family="Helvetica,sans-Serif" font-size="10.00">vector</text>
</a>
</g>
</g>
<!-- Node1&#45;&gt;Node10 -->
<g id="edge13_Node000001_Node000010" class="edge">
<title>Node1&#45;&gt;Node10</title>
<g id="a_edge13_Node000001_Node000010"><a xlink:title=" ">
<path fill="none" stroke="#63b8ff" d="M428.42,-108.74C444.16,-88.43 473.61,-50.43 490.96,-28.04"/>
<polygon fill="#63b8ff" stroke="#63b8ff" points="493.71,-30.21 497.07,-20.16 488.18,-25.92 493.71,-30.21"/>
</a>
</g>
</g>
<!-- Node11 -->
<g id="Node000011" class="node">
<title>Node11</title>
<g id="a_Node000011"><a xlink:title=" ">
<polygon fill="#e0e0e0" stroke="#999999" points="531.88,-73 483.62,-73 483.62,-54.5 531.88,-54.5 531.88,-73"/>
<text xml:space="preserve" text-anchor="middle" x="507.75" y="-59.5" font-family="Helvetica,sans-Serif" font-size="10.00">cstddef</text>
</a>
</g>
</g>
<!-- Node1&#45;&gt;Node11 -->
<g id="edge10_Node000001_Node000011" class="edge">
<title>Node1&#45;&gt;Node11</title>
<g id="a_edge10_Node000001_Node000011"><a xlink:title=" ">
<path fill="none" stroke="#63b8ff" d="M439.54,-108.52C453.27,-99.71 470.97,-88.35 484.9,-79.41"/>
<polygon fill="#63b8ff" stroke="#63b8ff" points="486.46,-82.57 492.99,-74.22 482.68,-76.68 486.46,-82.57"/>
</a>
</g>
</g>
<!-- Node3 -->
<g id="Node000003" class="node">
<title>Node3</title>
<g id="a_Node000003"><a xlink:title=" ">
<polygon fill="#e0e0e0" stroke="#999999" points="217.88,-18.5 145.62,-18.5 145.62,0 217.88,0 217.88,-18.5"/>
<text xml:space="preserve" text-anchor="middle" x="181.75" y="-5" font-family="Helvetica,sans-Serif" font-size="10.00">Eigen/Dense</text>
</a>
</g>
</g>
<!-- Node2&#45;&gt;Node3 -->
<g id="edge2_Node000002_Node000003" class="edge">
<title>Node2&#45;&gt;Node3</title>
<g id="a_edge2_Node000002_Node000003"><a xlink:title=" ">
<path fill="none" stroke="#63b8ff" d="M307.82,-54.08C283.23,-45.53 245.39,-32.38 217.58,-22.71"/>
<polygon fill="#63b8ff" stroke="#63b8ff" points="218.75,-19.41 208.15,-19.43 216.45,-26.02 218.75,-19.41"/>
</a>
</g>
</g>
<!-- Node4 -->
<g id="Node000004" class="node">
<title>Node4</title>
<g id="a_Node000004"><a xlink:title=" ">
<polygon fill="#e0e0e0" stroke="#999999" points="291.62,-18.5 235.88,-18.5 235.88,0 291.62,0 291.62,-18.5"/>
<text xml:space="preserve" text-anchor="middle" x="263.75" y="-5" font-family="Helvetica,sans-Serif" font-size="10.00">algorithm</text>
</a>
</g>
</g>
<!-- Node2&#45;&gt;Node4 -->
<g id="edge3_Node000002_Node000004" class="edge">
<title>Node2&#45;&gt;Node4</title>
<g id="a_edge3_Node000002_Node000004"><a xlink:title=" ">
<path fill="none" stroke="#63b8ff" d="M321.36,-54.08C311.21,-46.36 296.12,-34.88 283.94,-25.61"/>
<polygon fill="#63b8ff" stroke="#63b8ff" points="286.21,-22.94 276.14,-19.67 281.98,-28.52 286.21,-22.94"/>
</a>
</g>
</g>
<!-- Node5 -->
<g id="Node000005" class="node">
<title>Node5</title>
<g id="a_Node000005"><a xlink:title=" ">
<polygon fill="#e0e0e0" stroke="#999999" points="355.38,-18.5 310.12,-18.5 310.12,0 355.38,0 355.38,-18.5"/>
<text xml:space="preserve" text-anchor="middle" x="332.75" y="-5" font-family="Helvetica,sans-Serif" font-size="10.00">cctype</text>
</a>
</g>
</g>
<!-- Node2&#45;&gt;Node5 -->
<g id="edge4_Node000002_Node000005" class="edge">
<title>Node2&#45;&gt;Node5</title>
<g id="a_edge4_Node000002_Node000005"><a xlink:title=" ">
<path fill="none" stroke="#63b8ff" d="M332.75,-54.08C332.75,-47.58 332.75,-38.42 332.75,-30.16"/>
<polygon fill="#63b8ff" stroke="#63b8ff" points="336.25,-30.27 332.75,-20.27 329.25,-30.27 336.25,-30.27"/>
</a>
</g>
</g>
<!-- Node2&#45;&gt;Node6 -->
<g id="edge5_Node000002_Node000006" class="edge">
<title>Node2&#45;&gt;Node6</title>
<g id="a_edge5_Node000002_Node000006"><a xlink:title=" ">
<path fill="none" stroke="#63b8ff" d="M302.98,-58.18C255.98,-50.88 161.42,-35.82 71.22,-18.9"/>
<polygon fill="#63b8ff" stroke="#63b8ff" points="71.92,-15.47 61.45,-17.05 70.62,-22.35 71.92,-15.47"/>
</a>
</g>
</g>
<!-- Node7 -->
<g id="Node000007" class="node">
<title>Node7</title>
<g id="a_Node000007"><a xlink:title=" ">
<polygon fill="#e0e0e0" stroke="#999999" points="408.12,-18.5 373.38,-18.5 373.38,0 408.12,0 408.12,-18.5"/>
<text xml:space="preserve" text-anchor="middle" x="390.75" y="-5" font-family="Helvetica,sans-Serif" font-size="10.00">map</text>
</a>
</g>
</g>
<!-- Node2&#45;&gt;Node7 -->
<g id="edge6_Node000002_Node000007" class="edge">
<title>Node2&#45;&gt;Node7</title>
<g id="a_edge6_Node000002_Node000007"><a xlink:title=" ">
<path fill="none" stroke="#63b8ff" d="M342.33,-54.08C350.6,-46.59 362.79,-35.56 372.86,-26.44"/>
<polygon fill="#63b8ff" stroke="#63b8ff" points="375.16,-29.08 380.23,-19.77 370.47,-23.89 375.16,-29.08"/>
</a>
</g>
</g>
<!-- Node8 -->
<g id="Node000008" class="node">
<title>Node8</title>
<g id="a_Node000008"><a xlink:title=" ">
<polygon fill="#e0e0e0" stroke="#999999" points="127.62,-18.5 77.88,-18.5 77.88,0 127.62,0 127.62,-18.5"/>
<text xml:space="preserve" text-anchor="middle" x="102.75" y="-5" font-family="Helvetica,sans-Serif" font-size="10.00">optional</text>
</a>
</g>
</g>
<!-- Node2&#45;&gt;Node8 -->
<g id="edge7_Node000002_Node000008" class="edge">
<title>Node2&#45;&gt;Node8</title>
<g id="a_edge7_Node000002_Node000008"><a xlink:title=" ">
<path fill="none" stroke="#63b8ff" d="M303.16,-56.23C266.86,-48.19 203.14,-33.97 139.1,-19.02"/>
<polygon fill="#63b8ff" stroke="#63b8ff" points="140,-15.64 129.46,-16.77 138.4,-22.45 140,-15.64"/>
</a>
</g>
</g>
<!-- Node2&#45;&gt;Node9 -->
<g id="edge8_Node000002_Node000009" class="edge">
<title>Node2&#45;&gt;Node9</title>
<g id="a_edge8_Node000002_Node000009"><a xlink:title=" ">
<path fill="none" stroke="#63b8ff" d="M351.41,-54.08C369.16,-45.84 396.12,-33.31 416.69,-23.75"/>
<polygon fill="#63b8ff" stroke="#63b8ff" points="418.1,-26.96 425.69,-19.57 415.15,-20.61 418.1,-26.96"/>
</a>
</g>
</g>
<!-- Node2&#45;&gt;Node10 -->
<g id="edge9_Node000002_Node000010" class="edge">
<title>Node2&#45;&gt;Node10</title>
<g id="a_edge9_Node000002_Node000010"><a xlink:title=" ">
<path fill="none" stroke="#63b8ff" d="M361.15,-54.08C391.74,-44.74 440.33,-29.91 472.38,-20.13"/>
<polygon fill="#63b8ff" stroke="#63b8ff" points="473.39,-23.48 481.93,-17.22 471.35,-16.79 473.39,-23.48"/>
</a>
</g>
</g>
</g>
</svg>
